<?xml version="1.0" standalone="no"?>
<!DOCTYPE svg PUBLIC "-//W3C//DTD SVG 20010904//EN"
 "http://www.w3.org/TR/2001/REC-SVG-20010904/DTD/svg10.dtd">
<svg version="1.0" xmlns="http://www.w3.org/2000/svg"
 width="300.000000pt" height="300.000000pt" viewBox="0 0 300.000000 300.000000"
 preserveAspectRatio="xMidYMid meet">
<metadata>
Created by potrace 1.14, written by Peter Selinger 2001-2017
</metadata>
<g transform="translate(0.000000,300.000000) scale(0.100000,-0.100000)"
fill="#000000" stroke="none">
<path d="M20 1877 c0 -506 -3 -726 -11 -734 -7 -7 -8 -38 -4 -89 3 -44 8 -206
11 -361 l5 -283 714 0 715 0 0 1095 0 1095 -715 0 -715 0 0 -723z"/>
<path d="M1560 1505 l0 -1095 715 0 715 0 0 1095 0 1095 -715 0 -715 0 0
-1095z"/>
</g>
</svg>
